<mxfile host="app.diagrams.net" modified="2021-08-27T01:49:12.437Z" agent="5.0 (Windows)" etag="vknuHCBNXYYhuTPM2LnR" version="15.0.2" type="github">
  <diagram id="IosiL7fnTwb4QODBOcF8" name="Page-1">
    <mxGraphModel dx="1422" dy="780" grid="1" gridSize="10" guides="1" tooltips="1" connect="1" arrows="1" fold="1" page="1" pageScale="1" pageWidth="850" pageHeight="1100" math="0" shadow="0">
      <root>
        <mxCell id="0" />
        <mxCell id="1" parent="0" />
        <mxCell id="9J1PayXIY4_ieb8VHX0C-15" style="edgeStyle=orthogonalEdgeStyle;curved=1;rounded=0;orthogonalLoop=1;jettySize=auto;html=1;exitX=0.5;exitY=1;exitDx=0;exitDy=0;entryX=0.5;entryY=0;entryDx=0;entryDy=0;entryPerimeter=0;" edge="1" parent="1" source="9J1PayXIY4_ieb8VHX0C-2" target="9J1PayXIY4_ieb8VHX0C-14">
          <mxGeometry relative="1" as="geometry" />
        </mxCell>
        <mxCell id="9J1PayXIY4_ieb8VHX0C-2" value="&lt;font style=&quot;font-size: 18px&quot;&gt;大面积故障&lt;br&gt;&lt;/font&gt;" style="rounded=0;whiteSpace=wrap;html=1;" vertex="1" parent="1">
          <mxGeometry x="130" y="260" width="110" height="40" as="geometry" />
        </mxCell>
        <mxCell id="9J1PayXIY4_ieb8VHX0C-6" style="edgeStyle=orthogonalEdgeStyle;rounded=0;orthogonalLoop=1;jettySize=auto;html=1;exitX=0.5;exitY=1;exitDx=0;exitDy=0;entryX=0.5;entryY=0;entryDx=0;entryDy=0;" edge="1" parent="1" source="9J1PayXIY4_ieb8VHX0C-3" target="9J1PayXIY4_ieb8VHX0C-5">
          <mxGeometry relative="1" as="geometry" />
        </mxCell>
        <mxCell id="9J1PayXIY4_ieb8VHX0C-3" value="&lt;font style=&quot;font-size: 18px&quot;&gt;出现故障&lt;/font&gt;" style="ellipse;whiteSpace=wrap;html=1;" vertex="1" parent="1">
          <mxGeometry x="365.5" y="10" width="120" height="80" as="geometry" />
        </mxCell>
        <mxCell id="9J1PayXIY4_ieb8VHX0C-10" style="edgeStyle=orthogonalEdgeStyle;curved=1;rounded=0;orthogonalLoop=1;jettySize=auto;html=1;exitX=0.5;exitY=1;exitDx=0;exitDy=0;entryX=0.5;entryY=0;entryDx=0;entryDy=0;" edge="1" parent="1" source="9J1PayXIY4_ieb8VHX0C-5" target="9J1PayXIY4_ieb8VHX0C-2">
          <mxGeometry relative="1" as="geometry" />
        </mxCell>
        <mxCell id="9J1PayXIY4_ieb8VHX0C-11" style="edgeStyle=orthogonalEdgeStyle;curved=1;rounded=0;orthogonalLoop=1;jettySize=auto;html=1;exitX=0.5;exitY=1;exitDx=0;exitDy=0;entryX=0.5;entryY=0;entryDx=0;entryDy=0;" edge="1" parent="1" source="9J1PayXIY4_ieb8VHX0C-5" target="9J1PayXIY4_ieb8VHX0C-7">
          <mxGeometry relative="1" as="geometry" />
        </mxCell>
        <mxCell id="9J1PayXIY4_ieb8VHX0C-12" style="edgeStyle=orthogonalEdgeStyle;curved=1;rounded=0;orthogonalLoop=1;jettySize=auto;html=1;exitX=0.5;exitY=1;exitDx=0;exitDy=0;" edge="1" parent="1" source="9J1PayXIY4_ieb8VHX0C-5" target="9J1PayXIY4_ieb8VHX0C-8">
          <mxGeometry relative="1" as="geometry">
            <Array as="points">
              <mxPoint x="426" y="230" />
              <mxPoint x="645" y="230" />
            </Array>
          </mxGeometry>
        </mxCell>
        <mxCell id="9J1PayXIY4_ieb8VHX0C-5" value="&lt;font style=&quot;font-size: 18px&quot;&gt;内部分析&lt;br&gt;&lt;/font&gt;" style="rhombus;whiteSpace=wrap;html=1;" vertex="1" parent="1">
          <mxGeometry x="373" y="110" width="105" height="110" as="geometry" />
        </mxCell>
        <mxCell id="9J1PayXIY4_ieb8VHX0C-25" style="edgeStyle=orthogonalEdgeStyle;curved=1;rounded=0;orthogonalLoop=1;jettySize=auto;html=1;exitX=0.5;exitY=1;exitDx=0;exitDy=0;entryX=0.5;entryY=0;entryDx=0;entryDy=0;entryPerimeter=0;" edge="1" parent="1" source="9J1PayXIY4_ieb8VHX0C-7" target="9J1PayXIY4_ieb8VHX0C-21">
          <mxGeometry relative="1" as="geometry" />
        </mxCell>
        <mxCell id="9J1PayXIY4_ieb8VHX0C-7" value="&lt;font style=&quot;font-size: 18px&quot;&gt;局部故障&lt;br&gt;&lt;/font&gt;" style="rounded=0;whiteSpace=wrap;html=1;" vertex="1" parent="1">
          <mxGeometry x="370.5" y="260" width="110" height="40" as="geometry" />
        </mxCell>
        <mxCell id="9J1PayXIY4_ieb8VHX0C-27" style="edgeStyle=orthogonalEdgeStyle;curved=1;rounded=0;orthogonalLoop=1;jettySize=auto;html=1;exitX=0.5;exitY=1;exitDx=0;exitDy=0;entryX=0.5;entryY=0;entryDx=0;entryDy=0;entryPerimeter=0;" edge="1" parent="1" source="9J1PayXIY4_ieb8VHX0C-8" target="9J1PayXIY4_ieb8VHX0C-23">
          <mxGeometry relative="1" as="geometry" />
        </mxCell>
        <mxCell id="9J1PayXIY4_ieb8VHX0C-8" value="&lt;font style=&quot;font-size: 18px&quot;&gt;大面积故障&lt;br&gt;&lt;/font&gt;" style="rounded=0;whiteSpace=wrap;html=1;" vertex="1" parent="1">
          <mxGeometry x="590" y="260" width="110" height="40" as="geometry" />
        </mxCell>
        <mxCell id="9J1PayXIY4_ieb8VHX0C-32" style="edgeStyle=orthogonalEdgeStyle;curved=1;rounded=0;orthogonalLoop=1;jettySize=auto;html=1;entryX=0;entryY=0;entryDx=0;entryDy=0;" edge="1" parent="1" source="9J1PayXIY4_ieb8VHX0C-14" target="9J1PayXIY4_ieb8VHX0C-31">
          <mxGeometry relative="1" as="geometry">
            <Array as="points">
              <mxPoint x="185" y="550" />
              <mxPoint x="406" y="550" />
            </Array>
          </mxGeometry>
        </mxCell>
        <mxCell id="9J1PayXIY4_ieb8VHX0C-14" value="&lt;font style=&quot;font-size: 18px&quot;&gt;曹波&lt;/font&gt;" style="shape=umlActor;verticalLabelPosition=bottom;verticalAlign=top;html=1;outlineConnect=0;" vertex="1" parent="1">
          <mxGeometry x="170" y="400" width="30" height="60" as="geometry" />
        </mxCell>
        <mxCell id="9J1PayXIY4_ieb8VHX0C-16" value="&lt;font style=&quot;font-size: 18px&quot;&gt;提交工单&lt;/font&gt;" style="text;html=1;strokeColor=none;fillColor=none;align=center;verticalAlign=middle;whiteSpace=wrap;rounded=0;" vertex="1" parent="1">
          <mxGeometry x="100" y="340" width="80" height="20" as="geometry" />
        </mxCell>
        <mxCell id="9J1PayXIY4_ieb8VHX0C-33" style="edgeStyle=orthogonalEdgeStyle;curved=1;rounded=0;orthogonalLoop=1;jettySize=auto;html=1;entryX=0.5;entryY=0;entryDx=0;entryDy=0;" edge="1" parent="1" source="9J1PayXIY4_ieb8VHX0C-21" target="9J1PayXIY4_ieb8VHX0C-31">
          <mxGeometry relative="1" as="geometry" />
        </mxCell>
        <mxCell id="9J1PayXIY4_ieb8VHX0C-21" value="&lt;font style=&quot;font-size: 18px&quot;&gt;常艺航&lt;/font&gt;" style="shape=umlActor;verticalLabelPosition=bottom;verticalAlign=top;html=1;outlineConnect=0;" vertex="1" parent="1">
          <mxGeometry x="410" y="400" width="30" height="60" as="geometry" />
        </mxCell>
        <mxCell id="9J1PayXIY4_ieb8VHX0C-22" value="&lt;font style=&quot;font-size: 18px&quot;&gt;提交工单&lt;/font&gt;" style="text;html=1;strokeColor=none;fillColor=none;align=center;verticalAlign=middle;whiteSpace=wrap;rounded=0;" vertex="1" parent="1">
          <mxGeometry x="345" y="340" width="80" height="20" as="geometry" />
        </mxCell>
        <mxCell id="9J1PayXIY4_ieb8VHX0C-34" style="edgeStyle=orthogonalEdgeStyle;curved=1;rounded=0;orthogonalLoop=1;jettySize=auto;html=1;entryX=1;entryY=0.5;entryDx=0;entryDy=0;" edge="1" parent="1" source="9J1PayXIY4_ieb8VHX0C-23" target="9J1PayXIY4_ieb8VHX0C-31">
          <mxGeometry relative="1" as="geometry">
            <Array as="points">
              <mxPoint x="610" y="430" />
              <mxPoint x="610" y="570" />
              <mxPoint x="466" y="570" />
            </Array>
          </mxGeometry>
        </mxCell>
        <mxCell id="9J1PayXIY4_ieb8VHX0C-23" value="&lt;font style=&quot;font-size: 14px&quot;&gt;当地兼职外包人员&lt;/font&gt;" style="shape=umlActor;verticalLabelPosition=bottom;verticalAlign=top;html=1;outlineConnect=0;" vertex="1" parent="1">
          <mxGeometry x="630" y="400" width="30" height="60" as="geometry" />
        </mxCell>
        <mxCell id="9J1PayXIY4_ieb8VHX0C-24" value="&lt;font style=&quot;font-size: 18px&quot;&gt;提交工单&lt;/font&gt;" style="text;html=1;strokeColor=none;fillColor=none;align=center;verticalAlign=middle;whiteSpace=wrap;rounded=0;" vertex="1" parent="1">
          <mxGeometry x="570" y="330" width="80" height="20" as="geometry" />
        </mxCell>
        <mxCell id="9J1PayXIY4_ieb8VHX0C-39" style="edgeStyle=orthogonalEdgeStyle;curved=1;rounded=0;orthogonalLoop=1;jettySize=auto;html=1;exitX=0.5;exitY=1;exitDx=0;exitDy=0;" edge="1" parent="1" source="9J1PayXIY4_ieb8VHX0C-31">
          <mxGeometry relative="1" as="geometry">
            <mxPoint x="426" y="750" as="targetPoint" />
          </mxGeometry>
        </mxCell>
        <mxCell id="9J1PayXIY4_ieb8VHX0C-31" value="&lt;font style=&quot;font-size: 18px&quot;&gt;处理&lt;br&gt;&lt;/font&gt;" style="rhombus;whiteSpace=wrap;html=1;" vertex="1" parent="1">
          <mxGeometry x="386" y="580" width="80" height="80" as="geometry" />
        </mxCell>
        <mxCell id="9J1PayXIY4_ieb8VHX0C-42" style="edgeStyle=orthogonalEdgeStyle;curved=1;rounded=0;orthogonalLoop=1;jettySize=auto;html=1;exitX=0.5;exitY=1;exitDx=0;exitDy=0;entryX=0.417;entryY=0;entryDx=0;entryDy=0;entryPerimeter=0;" edge="1" parent="1" target="9J1PayXIY4_ieb8VHX0C-41">
          <mxGeometry relative="1" as="geometry">
            <mxPoint x="426" y="770" as="sourcePoint" />
          </mxGeometry>
        </mxCell>
        <mxCell id="9J1PayXIY4_ieb8VHX0C-40" value="&lt;font style=&quot;font-size: 18px&quot;&gt;反馈给对接人确认&lt;/font&gt;" style="text;html=1;strokeColor=none;fillColor=none;align=center;verticalAlign=middle;whiteSpace=wrap;rounded=0;" vertex="1" parent="1">
          <mxGeometry x="400" y="690" width="182" height="10" as="geometry" />
        </mxCell>
        <mxCell id="9J1PayXIY4_ieb8VHX0C-41" value="&lt;font style=&quot;font-size: 18px&quot;&gt;已经解决-归档&lt;br&gt;&lt;/font&gt;" style="rounded=1;whiteSpace=wrap;html=1;" vertex="1" parent="1">
          <mxGeometry x="140" y="850" width="120" height="60" as="geometry" />
        </mxCell>
        <mxCell id="9J1PayXIY4_ieb8VHX0C-49" style="edgeStyle=orthogonalEdgeStyle;curved=1;rounded=0;orthogonalLoop=1;jettySize=auto;html=1;exitX=0.5;exitY=1;exitDx=0;exitDy=0;entryX=0.5;entryY=0;entryDx=0;entryDy=0;" edge="1" parent="1" source="9J1PayXIY4_ieb8VHX0C-43">
          <mxGeometry relative="1" as="geometry">
            <mxPoint x="650" y="990" as="targetPoint" />
          </mxGeometry>
        </mxCell>
        <mxCell id="9J1PayXIY4_ieb8VHX0C-43" value="&lt;font style=&quot;font-size: 18px&quot;&gt;不能解决-升级问题&lt;br&gt;&lt;/font&gt;" style="rounded=1;whiteSpace=wrap;html=1;" vertex="1" parent="1">
          <mxGeometry x="550" y="850" width="200" height="60" as="geometry" />
        </mxCell>
        <mxCell id="9J1PayXIY4_ieb8VHX0C-47" style="edgeStyle=orthogonalEdgeStyle;curved=1;rounded=0;orthogonalLoop=1;jettySize=auto;html=1;exitX=0.5;exitY=0.5;exitDx=0;exitDy=0;exitPerimeter=0;entryX=0.5;entryY=0;entryDx=0;entryDy=0;" edge="1" parent="1" source="9J1PayXIY4_ieb8VHX0C-46" target="9J1PayXIY4_ieb8VHX0C-43">
          <mxGeometry relative="1" as="geometry" />
        </mxCell>
        <mxCell id="9J1PayXIY4_ieb8VHX0C-46" value="&lt;font style=&quot;font-size: 18px&quot;&gt;对接人确认&lt;/font&gt;" style="shape=umlActor;verticalLabelPosition=bottom;verticalAlign=top;html=1;outlineConnect=0;" vertex="1" parent="1">
          <mxGeometry x="411" y="740" width="30" height="60" as="geometry" />
        </mxCell>
        <mxCell id="9J1PayXIY4_ieb8VHX0C-53" style="edgeStyle=orthogonalEdgeStyle;curved=1;rounded=0;orthogonalLoop=1;jettySize=auto;html=1;" edge="1" parent="1" source="9J1PayXIY4_ieb8VHX0C-51" target="9J1PayXIY4_ieb8VHX0C-52">
          <mxGeometry relative="1" as="geometry" />
        </mxCell>
        <mxCell id="9J1PayXIY4_ieb8VHX0C-51" value="&lt;font style=&quot;font-size: 18px&quot;&gt;升级给孟凡强处理&lt;/font&gt;" style="shape=umlActor;verticalLabelPosition=bottom;verticalAlign=top;html=1;outlineConnect=0;" vertex="1" parent="1">
          <mxGeometry x="635" y="990" width="30" height="60" as="geometry" />
        </mxCell>
        <mxCell id="9J1PayXIY4_ieb8VHX0C-52" value="&lt;font style=&quot;font-size: 18px&quot;&gt;归档&lt;br&gt;&lt;/font&gt;" style="rounded=1;whiteSpace=wrap;html=1;" vertex="1" parent="1">
          <mxGeometry x="370.5" y="1000" width="99.5" height="50" as="geometry" />
        </mxCell>
      </root>
    </mxGraphModel>
  </diagram>
</mxfile>
